<svg id="图层_5" data-name="图层 5" xmlns="http://www.w3.org/2000/svg" viewBox="0 0 515.22 60.34"><defs><style>.cls-1,.cls-2{fill:#fff;}.cls-1{fill-rule:evenodd;}</style></defs><path class="cls-1" d="M417.85,389.2l-2.19-1.35a4.33,4.33,0,0,0-5.55.84c-5.43,6.18-13.75,7.85-23.14,3.18a16,16,0,0,1-7.16-7.15c-7.3-14.54,3.09-29,16.84-29,5.75,0,9.91,1.53,13.43,5.53a4.42,4.42,0,0,0,5.62.84l2.15-1.33,2.81-1.73a.93.93,0,0,0,.29-1.3c-7.47-11.63-21.73-16.77-37.42-10a27.1,27.1,0,0,0-14.24,14.34c-9.27,21.93,6.58,43,27.36,43,10.63,0,19-4.52,24.32-12.85a.94.94,0,0,0-.3-1.28Z" transform="translate(-164.97 -344.73)"/><path class="cls-1" d="M451.79,402.77h0C441,400.5,437.18,394.16,427.15,388c-7.67-4.73-15.9-9.4-25-12.05a1,1,0,0,1,0-1.86c9.09-2.65,17.32-7.32,25-12.05,10-6.18,13.83-12.52,24.64-14.79h0a28.38,28.38,0,1,1,0,55.54Z" transform="translate(-164.97 -344.73)"/><path class="cls-2" d="M224.37,361.34v21.24q0,8.42-4.39,13.06t-12.6,4.65q-8.85,0-12.74-6a12.51,12.51,0,0,1-5.15,4.5,17.64,17.64,0,0,1-7.6,1.48q-8.2,0-12.56-4.65T165,382.58V361.34h9v20.44q0,5.48,1.91,8.07t6.08,2.59c2.79,0,4.85-.88,6.2-2.63s2-4.43,2-8V361.34h9v20.44q0,5.4,2,8c1.34,1.75,3.41,2.63,6.19,2.63s4.81-.86,6.08-2.59,1.91-4.42,1.91-8.07V361.34Z" transform="translate(-164.97 -344.73)"/><path class="cls-2" d="M269.08,361.34v38.44h-8.56v-5a14,14,0,0,1-5.51,4.1,18.68,18.68,0,0,1-7.24,1.37,20.42,20.42,0,0,1-10-2.45,17.34,17.34,0,0,1-6.91-6.91,20.94,20.94,0,0,1-2.49-10.37,20.73,20.73,0,0,1,2.49-10.33,17.45,17.45,0,0,1,6.91-6.88,20.42,20.42,0,0,1,10-2.45,17.9,17.9,0,0,1,6.88,1.3,15,15,0,0,1,5.43,3.82v-4.68ZM257,389.27a13.33,13.33,0,0,0,0-17.42,11,11,0,0,0-8.21-3.31,10.86,10.86,0,0,0-8.17,3.31,13.42,13.42,0,0,0,0,17.42,10.86,10.86,0,0,0,8.17,3.31A11,11,0,0,0,257,389.27Z" transform="translate(-164.97 -344.73)"/><path class="cls-2" d="M298.17,397.7a10.66,10.66,0,0,1-3.85,1.94,17.43,17.43,0,0,1-4.79.65q-6.33,0-9.79-3.31t-3.46-9.65V352.84h9v8.78h10.3v7.2h-10.3v18.29a6,6,0,0,0,1.41,4.29,5.15,5.15,0,0,0,3.92,1.47,7.92,7.92,0,0,0,5-1.58Z" transform="translate(-164.97 -344.73)"/><path class="cls-2" d="M328.7,388.48l4.75,5.54A15.59,15.59,0,0,1,327,398.7a25.93,25.93,0,0,1-20.09-.93,18.17,18.17,0,0,1-7.45-7,19.86,19.86,0,0,1-2.63-10.19,20.19,20.19,0,0,1,2.56-10.12,18.25,18.25,0,0,1,7.06-7,20.46,20.46,0,0,1,10.18-2.52,20.71,20.71,0,0,1,9.83,2.34,17.67,17.67,0,0,1,7,6.7A19.52,19.52,0,0,1,336,380.13l-29.44,5.76a10,10,0,0,0,4.39,5,14.43,14.43,0,0,0,7.27,1.73A14.17,14.17,0,0,0,328.7,388.48Zm-20.12-17.14a12.19,12.19,0,0,0-3.06,8.72v.07L327.26,376a10.2,10.2,0,0,0-3.78-5.69,11.05,11.05,0,0,0-6.88-2.16A10.52,10.52,0,0,0,308.58,371.34Z" transform="translate(-164.97 -344.73)"/><path class="cls-2" d="M362.61,360.9v8.57a11.73,11.73,0,0,0-2.09-.21c-3.5,0-6.24,1-8.2,3.06s-3,5-3,8.82v18.64h-9V361.34h8.57V367Q352.81,360.91,362.61,360.9Z" transform="translate(-164.97 -344.73)"/><path class="cls-2" d="M524.17,365.15c2.93,2.84,4.39,7,4.39,12.6v22h-9V378.9c0-3.35-.79-5.89-2.37-7.59a8.78,8.78,0,0,0-6.77-2.56,10.41,10.41,0,0,0-7.85,3q-2.88,3-2.88,8.6v19.44h-9V361.34h8.57v5a14.1,14.1,0,0,1,5.62-4,20.22,20.22,0,0,1,7.63-1.37Q519.79,360.9,524.17,365.15Z" transform="translate(-164.97 -344.73)"/><path class="cls-2" d="M569.17,365.15c2.93,2.84,4.39,7,4.39,12.6v22h-9V378.9c0-3.35-.79-5.89-2.37-7.59a8.78,8.78,0,0,0-6.77-2.56,10.41,10.41,0,0,0-7.85,3q-2.88,3-2.88,8.6v19.44h-9V361.34h8.57v5a14.1,14.1,0,0,1,5.62-4,20.22,20.22,0,0,1,7.63-1.37Q564.79,360.9,569.17,365.15Z" transform="translate(-164.97 -344.73)"/><path class="cls-2" d="M609.78,388.48l4.75,5.54a15.59,15.59,0,0,1-6.48,4.68,25.93,25.93,0,0,1-20.09-.93,18.17,18.17,0,0,1-7.45-7,19.86,19.86,0,0,1-2.63-10.19,20.19,20.19,0,0,1,2.56-10.12,18.25,18.25,0,0,1,7.06-7,20.46,20.46,0,0,1,10.18-2.52,20.71,20.71,0,0,1,9.83,2.34,17.67,17.67,0,0,1,7,6.7,19.52,19.52,0,0,1,2.59,10.19l-29.44,5.76a10,10,0,0,0,4.39,5,14.43,14.43,0,0,0,7.27,1.73A14.17,14.17,0,0,0,609.78,388.48Zm-20.12-17.14a12.14,12.14,0,0,0-3.06,8.72v.07L608.34,376a10.2,10.2,0,0,0-3.78-5.69,11.05,11.05,0,0,0-6.88-2.16A10.52,10.52,0,0,0,589.66,371.34Z" transform="translate(-164.97 -344.73)"/><path class="cls-2" d="M628.36,397.77a18.46,18.46,0,0,1-7.42-7,19.59,19.59,0,0,1-2.66-10.19,19.37,19.37,0,0,1,2.66-10.15,18.55,18.55,0,0,1,7.38-7,22.46,22.46,0,0,1,10.76-2.52,20.67,20.67,0,0,1,10,2.31,15,15,0,0,1,6.45,6.62l-6.91,4a11.11,11.11,0,0,0-4.14-4,12.1,12.1,0,0,0-13.79,1.94,13.28,13.28,0,0,0,0,17.5,12.16,12.16,0,0,0,13.83,1.94,11.11,11.11,0,0,0,4.14-4l6.91,4A15.58,15.58,0,0,1,649,398a20.29,20.29,0,0,1-9.9,2.34A22.5,22.5,0,0,1,628.36,397.77Z" transform="translate(-164.97 -344.73)"/><path class="cls-2" d="M680.19,397.7a10.5,10.5,0,0,1-3.85,1.94,17.36,17.36,0,0,1-4.78.65q-6.34,0-9.8-3.31t-3.45-9.65V352.84h9v8.78H677.6v7.2H667.31v18.29a6,6,0,0,0,1.4,4.29,5.17,5.17,0,0,0,3.93,1.47,8,8,0,0,0,5-1.58Z" transform="translate(-164.97 -344.73)"/></svg>