<svg id="图层_3" data-name="图层 3" xmlns="http://www.w3.org/2000/svg" viewBox="0 0 515.22 60.34"><defs><style>.cls-1{fill:#5ba828;}.cls-1,.cls-2{fill-rule:evenodd;}.cls-2{fill:#1e8cd6;}.cls-3{fill:#0277d3;}</style></defs><path class="cls-1" d="M416.69,269.61l-2.19-1.35a4.33,4.33,0,0,0-5.55.84c-5.43,6.18-13.75,7.85-23.14,3.18a16.05,16.05,0,0,1-7.17-7.15c-7.29-14.54,3.09-29,16.84-29,5.76,0,9.92,1.53,13.44,5.53a4.42,4.42,0,0,0,5.62.84l2.15-1.33,2.81-1.73a.93.93,0,0,0,.29-1.3c-7.47-11.63-21.74-16.77-37.42-10.05a27.1,27.1,0,0,0-14.24,14.34c-9.27,21.93,6.58,43,27.35,43,10.64,0,19-4.52,24.33-12.85a.94.94,0,0,0-.3-1.28Z" transform="translate(-163.81 -225.14)"/><path class="cls-2" d="M450.63,283.18h0c-10.81-2.27-14.61-8.61-24.64-14.79-7.68-4.73-15.9-9.4-25-12.05a1,1,0,0,1,0-1.86c9.09-2.65,17.31-7.32,25-12,10-6.18,13.83-12.52,24.64-14.79h0a28.38,28.38,0,1,1,0,55.54Z" transform="translate(-163.81 -225.14)"/><path class="cls-3" d="M223.21,241.75V263q0,8.42-4.39,13.06t-12.6,4.65q-8.85,0-12.74-6a12.51,12.51,0,0,1-5.15,4.5,17.64,17.64,0,0,1-7.6,1.48q-8.21,0-12.56-4.65T163.81,263V241.75h9v20.44q0,5.47,1.91,8.07t6.08,2.59c2.79,0,4.85-.88,6.2-2.63s2-4.43,2-8V241.75h9v20.44q0,5.4,2,8c1.34,1.75,3.41,2.63,6.19,2.63s4.81-.86,6.08-2.59,1.91-4.42,1.91-8.07V241.75Z" transform="translate(-163.81 -225.14)"/><path class="cls-3" d="M267.92,241.75v38.44h-8.56v-5a14,14,0,0,1-5.51,4.1,18.68,18.68,0,0,1-7.24,1.37,20.42,20.42,0,0,1-10-2.45,17.34,17.34,0,0,1-6.91-6.91A20.94,20.94,0,0,1,227.17,261a20.73,20.73,0,0,1,2.49-10.33,17.45,17.45,0,0,1,6.91-6.88,20.42,20.42,0,0,1,10-2.45,17.9,17.9,0,0,1,6.88,1.3,15,15,0,0,1,5.43,3.82v-4.68Zm-12.09,27.93a13.33,13.33,0,0,0,0-17.42,11,11,0,0,0-8.21-3.31,10.86,10.86,0,0,0-8.17,3.31,13.42,13.42,0,0,0,0,17.42,10.86,10.86,0,0,0,8.17,3.31A11,11,0,0,0,255.83,269.68Z" transform="translate(-163.81 -225.14)"/><path class="cls-3" d="M297,278.11a10.66,10.66,0,0,1-3.85,1.94,17.43,17.43,0,0,1-4.79.65q-6.33,0-9.79-3.31t-3.46-9.65V233.25h9V242h10.3v7.2h-10.3v18.29a6,6,0,0,0,1.41,4.29,5.15,5.15,0,0,0,3.92,1.47,7.92,7.92,0,0,0,5-1.58Z" transform="translate(-163.81 -225.14)"/><path class="cls-3" d="M327.54,268.89l4.75,5.54a15.59,15.59,0,0,1-6.48,4.68,25.93,25.93,0,0,1-20.09-.93,18.17,18.17,0,0,1-7.45-7A19.86,19.86,0,0,1,295.64,261a20.08,20.08,0,0,1,2.56-10.12,18.18,18.18,0,0,1,7.06-7,20.44,20.44,0,0,1,10.18-2.52,20.71,20.71,0,0,1,9.83,2.34,17.67,17.67,0,0,1,7,6.7,19.52,19.52,0,0,1,2.59,10.19l-29.44,5.76a10,10,0,0,0,4.39,5,14.43,14.43,0,0,0,7.27,1.73A14.19,14.19,0,0,0,327.54,268.89Zm-20.12-17.14a12.14,12.14,0,0,0-3.06,8.72v.07l21.74-4.18a10.31,10.31,0,0,0-3.78-5.69,11.05,11.05,0,0,0-6.88-2.16A10.52,10.52,0,0,0,307.42,251.75Z" transform="translate(-163.81 -225.14)"/><path class="cls-3" d="M361.45,241.31v8.57a11.73,11.73,0,0,0-2.09-.21q-5.25,0-8.21,3.06c-2,2-2.95,5-2.95,8.82v18.64h-9V241.75h8.57v5.61Q351.66,241.32,361.45,241.31Z" transform="translate(-163.81 -225.14)"/><path class="cls-3" d="M523,245.56c2.93,2.84,4.39,7,4.39,12.6v22h-9V259.31c0-3.35-.79-5.89-2.37-7.59a8.78,8.78,0,0,0-6.77-2.56,10.41,10.41,0,0,0-7.85,3q-2.88,3-2.88,8.6v19.44h-9V241.75h8.57v5a14.14,14.14,0,0,1,5.61-4,20.28,20.28,0,0,1,7.64-1.37Q518.61,241.31,523,245.56Z" transform="translate(-163.81 -225.14)"/><path class="cls-3" d="M568,245.56c2.93,2.84,4.39,7,4.39,12.6v22h-9V259.31c0-3.35-.79-5.89-2.37-7.59a8.78,8.78,0,0,0-6.77-2.56,10.41,10.41,0,0,0-7.85,3q-2.88,3-2.88,8.6v19.44h-9V241.75h8.57v5a14.14,14.14,0,0,1,5.61-4,20.28,20.28,0,0,1,7.64-1.37Q563.61,241.31,568,245.56Z" transform="translate(-163.81 -225.14)"/><path class="cls-3" d="M608.62,268.89l4.75,5.54a15.59,15.59,0,0,1-6.48,4.68,25.93,25.93,0,0,1-20.09-.93,18.17,18.17,0,0,1-7.45-7A19.86,19.86,0,0,1,576.72,261a20.19,20.19,0,0,1,2.56-10.12,18.22,18.22,0,0,1,7.05-7,21.84,21.84,0,0,1,20-.18,17.67,17.67,0,0,1,7,6.7A19.52,19.52,0,0,1,616,260.54l-29.44,5.76a10,10,0,0,0,4.39,5,14.43,14.43,0,0,0,7.27,1.73A14.19,14.19,0,0,0,608.62,268.89ZM588.5,251.75a12.14,12.14,0,0,0-3.06,8.72v.07l21.74-4.18a10.31,10.31,0,0,0-3.78-5.69,11.05,11.05,0,0,0-6.88-2.16A10.52,10.52,0,0,0,588.5,251.75Z" transform="translate(-163.81 -225.14)"/><path class="cls-3" d="M627.19,278.18a18.5,18.5,0,0,1-7.41-7A19.59,19.59,0,0,1,617.11,261a19.38,19.38,0,0,1,2.67-10.15,18.55,18.55,0,0,1,7.38-7,22.46,22.46,0,0,1,10.76-2.52,20.67,20.67,0,0,1,10,2.31,15,15,0,0,1,6.45,6.62l-6.91,4a11.11,11.11,0,0,0-4.14-4,12.1,12.1,0,0,0-13.79,1.94,13.28,13.28,0,0,0,0,17.5,12.16,12.16,0,0,0,13.83,1.94,11.11,11.11,0,0,0,4.14-4l6.91,4a15.58,15.58,0,0,1-6.52,6.66,20.29,20.29,0,0,1-9.9,2.34A22.57,22.57,0,0,1,627.19,278.18Z" transform="translate(-163.81 -225.14)"/><path class="cls-3" d="M679,278.11a10.58,10.58,0,0,1-3.85,1.94,17.43,17.43,0,0,1-4.79.65q-6.33,0-9.79-3.31t-3.45-9.65V233.25h9V242h10.29v7.2H666.15v18.29a6,6,0,0,0,1.4,4.29,5.17,5.17,0,0,0,3.92,1.47,7.92,7.92,0,0,0,5-1.58Z" transform="translate(-163.81 -225.14)"/></svg>